<?xml version="1.0" encoding="utf-8"?>
<!DOCTYPE svg PUBLIC "-//W3C//DTD SVG 1.1//EN" "http://www.w3.org/Graphics/SVG/1.1/DTD/svg11.dtd">
<svg version="1.1" baseProfile="full"
 xmlns="http://www.w3.org/2000/svg"
 xmlns:xlink="http://www.w3.org/1999/xlink"
 xmlns:ev="http://www.w3.org/2001/xml-events" >
<defs>
<filter id="Filter_0">
  <feFlood flood-color="rgb( 255, 255, 255 )" flood-opacity="1" result="floodOut" />
  <feComposite operator="atop" in="floodOut" in2="SourceGraphic" result="compOut" />
  <feBlend mode="normal" in="compOut" in2="SourceGraphic" />
</filter>

</defs><g filter="url(#Filter_0)">
<path fill-rule="evenodd"  fill="rgb( 0, 0, 0 )"
 d="M113.000,36.000 C113.000,36.000 113.000,20.000 113.000,20.000 C113.000,20.000 118.000,20.000 118.000,20.000 C118.000,20.000 118.000,31.000 118.000,31.000 C118.000,31.000 132.000,31.000 132.000,31.000 C132.000,31.000 132.000,18.000 132.000,18.000 C132.000,18.000 120.000,18.000 120.000,18.000 C120.000,18.000 118.000,18.000 118.000,18.000 C118.000,18.000 113.000,18.000 113.000,18.000 C113.000,18.000 111.000,18.000 111.000,18.000 C111.000,18.000 107.000,18.000 107.000,18.000 C107.000,18.000 107.000,13.000 107.000,13.000 C107.000,13.000 113.000,13.000 113.000,13.000 C113.000,13.000 113.000,7.000 113.000,7.000 C113.000,7.000 118.000,7.000 118.000,7.000 C118.000,7.000 118.000,13.000 118.000,13.000 C118.000,13.000 137.000,13.000 137.000,13.000 C137.000,13.000 137.000,31.000 137.000,31.000 C137.000,31.000 143.000,31.000 143.000,31.000 C143.000,31.000 143.000,36.000 143.000,36.000 C143.000,36.000 113.000,36.000 113.000,36.000 ZM137.000,43.000 C137.000,43.000 132.000,43.000 132.000,43.000 C132.000,43.000 132.000,38.000 132.000,38.000 C132.000,38.000 137.000,38.000 137.000,38.000 C137.000,38.000 137.000,43.000 137.000,43.000 Z"/>
</g>
</svg>