<?xml version="1.0" encoding="utf-8"?>
<!DOCTYPE svg PUBLIC "-//W3C//DTD SVG 1.1//EN" "http://www.w3.org/Graphics/SVG/1.1/DTD/svg11.dtd">
<svg version="1.1" baseProfile="full"
 xmlns="http://www.w3.org/2000/svg"
 xmlns:xlink="http://www.w3.org/1999/xlink"
 xmlns:ev="http://www.w3.org/2001/xml-events" >
<defs>
<filter id="Filter_0">
  <feFlood flood-color="rgb( 65, 179, 225 )" flood-opacity="1" result="floodOut" />
  <feComposite operator="atop" in="floodOut" in2="SourceGraphic" result="compOut" />
  <feBlend mode="normal" in="compOut" in2="SourceGraphic" />
</filter>

</defs><g filter="url(#Filter_0)">
<path fill-rule="evenodd"  fill="rgb( 0, 0, 0 )"
 d="M124.975,80.772 C124.975,80.772 128.154,83.949 128.154,83.949 C128.154,83.949 141.513,70.622 141.505,70.614 C143.070,69.043 143.052,68.349 141.505,66.802 C141.513,66.785 140.227,65.526 140.227,65.526 C140.227,65.526 124.975,80.772 124.975,80.772 ZM123.529,79.325 C123.529,79.325 138.782,64.081 138.782,64.081 C138.782,64.081 135.780,61.081 135.780,61.081 C135.780,61.081 120.527,76.326 120.527,76.326 C120.527,76.326 123.529,79.325 123.529,79.325 ZM134.512,59.813 C134.512,59.813 133.244,58.545 133.244,58.545 C131.629,56.931 131.054,56.913 129.431,58.545 C129.431,58.545 116.080,71.881 116.080,71.881 C116.080,71.881 119.259,75.059 119.259,75.059 C119.259,75.059 134.512,59.813 134.512,59.813 ZM114.812,73.149 C114.812,73.149 108.851,91.133 108.851,91.133 C108.851,91.133 126.886,85.217 126.886,85.217 C126.886,85.217 114.812,73.149 114.812,73.149 ZM113.543,82.140 C113.543,82.140 117.991,86.587 117.991,86.587 C117.991,86.587 111.557,88.497 111.557,88.497 C111.557,88.497 113.543,82.140 113.543,82.140 Z"/>
</g>
</svg>