<?xml version="1.0" encoding="utf-8"?>
<!DOCTYPE svg PUBLIC "-//W3C//DTD SVG 1.1//EN" "http://www.w3.org/Graphics/SVG/1.1/DTD/svg11.dtd">
<svg version="1.1" baseProfile="full"
 xmlns="http://www.w3.org/2000/svg"
 xmlns:xlink="http://www.w3.org/1999/xlink"
 xmlns:ev="http://www.w3.org/2001/xml-events" >
<defs>
<filter id="Filter_0">
  <feFlood flood-color="rgb( 255, 255, 255 )" flood-opacity="1" result="floodOut" />
  <feComposite operator="atop" in="floodOut" in2="SourceGraphic" result="compOut" />
  <feBlend mode="normal" in="compOut" in2="SourceGraphic" />
</filter>

</defs><g filter="url(#Filter_0)">
<path fill-rule="evenodd"  fill="rgb( 0, 0, 0 )"
 d="M190.566,14.252 C190.566,14.252 185.770,18.433 185.770,18.433 C185.770,18.433 188.332,21.004 188.332,21.004 C188.332,21.004 183.523,25.827 183.523,25.827 C183.523,25.827 181.806,24.105 181.806,24.105 C181.806,24.105 167.037,38.917 167.037,38.917 C167.037,38.917 165.465,37.510 162.913,40.927 C162.396,41.626 160.803,43.001 158.790,40.984 C156.996,39.186 158.132,37.329 158.790,36.850 C161.937,34.512 160.851,32.716 160.851,32.716 C160.851,32.716 175.622,17.906 175.622,17.906 C175.622,17.906 173.904,16.183 173.904,16.183 C173.904,16.183 178.713,11.362 178.713,11.362 C178.713,11.362 181.428,14.081 181.428,14.081 C181.428,14.081 185.725,9.498 185.725,9.498 C186.343,8.537 187.321,7.999 188.534,7.999 C190.446,7.999 192.002,9.557 192.002,11.474 C192.002,12.673 191.483,13.631 190.566,14.252 ZM169.331,27.516 C169.331,27.516 168.334,27.516 168.334,27.516 C168.334,27.516 163.309,32.596 163.309,32.596 C163.309,32.596 163.351,35.839 163.351,35.839 C163.351,35.839 160.361,37.540 160.361,37.540 C160.361,37.540 160.361,38.510 160.361,38.510 C160.361,38.510 161.357,38.510 161.357,38.510 C161.357,38.510 161.357,39.510 161.357,39.510 C161.357,39.510 162.226,39.510 162.226,39.510 C162.226,39.510 163.141,37.511 163.141,37.511 C163.141,37.511 162.354,37.511 162.354,37.511 C162.354,37.511 162.354,36.511 162.354,36.511 C162.354,36.511 163.351,36.511 163.351,36.511 C163.351,36.511 163.351,37.054 163.351,37.054 C163.351,37.054 163.599,36.511 163.599,36.511 C163.599,36.511 163.351,36.511 163.351,36.511 C163.351,36.511 163.351,35.839 163.351,35.839 C163.351,35.839 163.351,35.512 163.351,35.512 C163.351,35.512 164.347,35.512 164.347,35.512 C164.347,35.512 164.347,36.511 164.347,36.511 C164.347,36.511 165.344,36.511 165.344,36.511 C165.344,36.511 165.344,35.512 165.344,35.512 C165.344,35.512 166.341,35.512 166.341,35.512 C166.341,35.512 166.341,36.511 166.341,36.511 C166.341,36.511 167.088,36.511 167.088,36.511 C167.088,36.511 175.976,27.516 175.976,27.516 C175.976,27.516 174.315,27.516 174.315,27.516 C174.315,27.516 174.315,28.516 174.315,28.516 C174.315,28.516 173.318,28.516 173.318,28.516 C173.318,28.516 173.318,27.516 173.318,27.516 C173.318,27.516 172.321,27.516 172.321,27.516 C172.321,27.516 172.321,28.516 172.321,28.516 C172.321,28.516 171.324,28.516 171.324,28.516 C171.324,28.516 171.324,27.516 171.324,27.516 C171.324,27.516 170.328,27.516 170.328,27.516 C170.328,27.516 170.328,28.516 170.328,28.516 C170.328,28.516 169.331,28.516 169.331,28.516 C169.331,28.516 169.331,27.516 169.331,27.516 ZM176.997,19.284 C176.997,19.284 169.782,26.517 169.782,26.517 C169.782,26.517 176.652,26.517 176.652,26.517 C176.652,26.517 180.430,22.727 180.430,22.727 C180.430,22.727 176.997,19.284 176.997,19.284 ZM168.334,29.515 C168.334,29.515 168.334,28.516 168.334,28.516 C168.334,28.516 169.331,28.516 169.331,28.516 C169.331,28.516 169.331,29.515 169.331,29.515 C169.331,29.515 168.334,29.515 168.334,29.515 ZM165.344,34.512 C165.344,34.512 165.344,35.512 165.344,35.512 C165.344,35.512 164.347,35.512 164.347,35.512 C164.347,35.512 164.347,34.512 164.347,34.512 C164.347,34.512 165.344,34.512 165.344,34.512 ZM167.338,34.512 C167.338,34.512 167.338,35.512 167.338,35.512 C167.338,35.512 166.341,35.512 166.341,35.512 C166.341,35.512 166.341,34.512 166.341,34.512 C166.341,34.512 167.338,34.512 167.338,34.512 ZM172.321,29.515 C172.321,29.515 172.321,28.516 172.321,28.516 C172.321,28.516 173.318,28.516 173.318,28.516 C173.318,28.516 173.318,29.515 173.318,29.515 C173.318,29.515 172.321,29.515 172.321,29.515 ZM170.328,29.515 C170.328,29.515 170.328,28.516 170.328,28.516 C170.328,28.516 171.324,28.516 171.324,28.516 C171.324,28.516 171.324,29.515 171.324,29.515 C171.324,29.515 170.328,29.515 170.328,29.515 ZM169.331,30.515 C169.331,30.515 169.331,29.515 169.331,29.515 C169.331,29.515 170.328,29.515 170.328,29.515 C170.328,29.515 170.328,30.515 170.328,30.515 C170.328,30.515 169.331,30.515 169.331,30.515 ZM167.338,30.515 C167.338,30.515 167.338,29.515 167.338,29.515 C167.338,29.515 168.334,29.515 168.334,29.515 C168.334,29.515 168.334,30.515 168.334,30.515 C168.334,30.515 167.338,30.515 167.338,30.515 ZM166.341,31.514 C166.341,31.514 166.341,30.515 166.341,30.515 C166.341,30.515 167.338,30.515 167.338,30.515 C167.338,30.515 167.338,31.514 167.338,31.514 C167.338,31.514 166.341,31.514 166.341,31.514 ZM165.344,32.514 C165.344,32.514 165.344,31.514 165.344,31.514 C165.344,31.514 166.341,31.514 166.341,31.514 C166.341,31.514 166.341,32.514 166.341,32.514 C166.341,32.514 165.344,32.514 165.344,32.514 ZM164.347,33.513 C164.347,33.513 164.347,32.514 164.347,32.514 C164.347,32.514 165.344,32.514 165.344,32.514 C165.344,32.514 165.344,33.513 165.344,33.513 C165.344,33.513 164.347,33.513 164.347,33.513 ZM166.341,33.513 C166.341,33.513 166.341,34.512 166.341,34.512 C166.341,34.512 165.344,34.512 165.344,34.512 C165.344,34.512 165.344,33.513 165.344,33.513 C165.344,33.513 166.341,33.513 166.341,33.513 ZM168.334,33.513 C168.334,33.513 168.334,34.512 168.334,34.512 C168.334,34.512 167.338,34.512 167.338,34.512 C167.338,34.512 167.338,33.513 167.338,33.513 C167.338,33.513 168.334,33.513 168.334,33.513 ZM169.331,32.514 C169.331,32.514 169.331,33.513 169.331,33.513 C169.331,33.513 168.334,33.513 168.334,33.513 C168.334,33.513 168.334,32.514 168.334,32.514 C168.334,32.514 169.331,32.514 169.331,32.514 ZM170.328,31.514 C170.328,31.514 170.328,32.514 170.328,32.514 C170.328,32.514 169.331,32.514 169.331,32.514 C169.331,32.514 169.331,31.514 169.331,31.514 C169.331,31.514 170.328,31.514 170.328,31.514 ZM168.334,31.514 C168.334,31.514 168.334,30.515 168.334,30.515 C168.334,30.515 169.331,30.515 169.331,30.515 C169.331,30.515 169.331,31.514 169.331,31.514 C169.331,31.514 168.334,31.514 168.334,31.514 ZM167.338,32.514 C167.338,32.514 167.338,31.514 167.338,31.514 C167.338,31.514 168.334,31.514 168.334,31.514 C168.334,31.514 168.334,32.514 168.334,32.514 C168.334,32.514 167.338,32.514 167.338,32.514 ZM166.341,33.513 C166.341,33.513 166.341,32.514 166.341,32.514 C166.341,32.514 167.338,32.514 167.338,32.514 C167.338,32.514 167.338,33.513 167.338,33.513 C167.338,33.513 166.341,33.513 166.341,33.513 ZM171.324,30.515 C171.324,30.515 171.324,31.514 171.324,31.514 C171.324,31.514 170.328,31.514 170.328,31.514 C170.328,31.514 170.328,30.515 170.328,30.515 C170.328,30.515 171.324,30.515 171.324,30.515 ZM172.321,29.515 C172.321,29.515 172.321,30.515 172.321,30.515 C172.321,30.515 171.324,30.515 171.324,30.515 C171.324,30.515 171.324,29.515 171.324,29.515 C171.324,29.515 172.321,29.515 172.321,29.515 ZM163.351,34.512 C163.351,34.512 163.351,33.513 163.351,33.513 C163.351,33.513 164.347,33.513 164.347,33.513 C164.347,33.513 164.347,34.512 164.347,34.512 C164.347,34.512 163.351,34.512 163.351,34.512 ZM162.354,37.511 C162.354,37.511 162.354,38.510 162.354,38.510 C162.354,38.510 161.357,38.510 161.357,38.510 C161.357,38.510 161.357,37.511 161.357,37.511 C161.357,37.511 162.354,37.511 162.354,37.511 Z"/>
</g>
</svg>