<?xml version="1.0" encoding="utf-8"?>
<!DOCTYPE svg PUBLIC "-//W3C//DTD SVG 1.1//EN" "http://www.w3.org/Graphics/SVG/1.1/DTD/svg11.dtd">
<svg version="1.1" baseProfile="full"
 xmlns="http://www.w3.org/2000/svg"
 xmlns:xlink="http://www.w3.org/1999/xlink"
 xmlns:ev="http://www.w3.org/2001/xml-events" >
<defs>
<filter id="Filter_0">
  <feFlood flood-color="rgb( 255, 255, 255 )" flood-opacity="1" result="floodOut" />
  <feComposite operator="atop" in="floodOut" in2="SourceGraphic" result="compOut" />
  <feBlend mode="normal" in="compOut" in2="SourceGraphic" />
</filter>

</defs><g filter="url(#Filter_0)">
<path fill-rule="evenodd"  fill="rgb( 0, 0, 0 )"
 d="M193.000,78.000 C193.000,78.000 187.000,82.000 187.000,82.000 C187.000,82.000 187.000,80.000 187.000,80.000 C187.000,80.000 181.000,80.000 181.000,80.000 C181.000,80.000 181.000,86.000 181.000,86.000 C181.000,86.000 183.000,86.000 183.000,86.000 C183.000,86.000 179.000,92.000 179.000,92.000 C179.000,92.000 175.000,86.000 175.000,86.000 C175.000,86.000 177.000,86.000 177.000,86.000 C177.000,86.000 177.000,80.000 177.000,80.000 C177.000,80.000 171.000,80.000 171.000,80.000 C171.000,80.000 171.000,82.000 171.000,82.000 C171.000,82.000 165.000,78.000 165.000,78.000 C165.000,78.000 171.000,74.000 171.000,74.000 C171.000,74.000 171.000,76.000 171.000,76.000 C171.000,76.000 177.000,76.000 177.000,76.000 C177.000,76.000 177.000,70.000 177.000,70.000 C177.000,70.000 175.000,70.000 175.000,70.000 C175.000,70.000 179.000,64.000 179.000,64.000 C179.000,64.000 183.000,70.000 183.000,70.000 C183.000,70.000 181.000,70.000 181.000,70.000 C181.000,70.000 181.000,76.000 181.000,76.000 C181.000,76.000 187.000,76.000 187.000,76.000 C187.000,76.000 187.000,74.000 187.000,74.000 C187.000,74.000 193.000,78.000 193.000,78.000 ZM159.000,75.000 C159.000,75.000 159.000,58.000 159.000,58.000 C159.000,58.000 171.000,70.000 171.000,70.000 C171.000,70.000 164.000,70.000 164.000,70.000 C164.000,70.000 159.000,75.000 159.000,75.000 Z"/>
</g>
</svg>