<?xml version="1.0" encoding="utf-8"?>
<!DOCTYPE svg PUBLIC "-//W3C//DTD SVG 1.1//EN" "http://www.w3.org/Graphics/SVG/1.1/DTD/svg11.dtd">
<svg version="1.1" baseProfile="full"
 xmlns="http://www.w3.org/2000/svg"
 xmlns:xlink="http://www.w3.org/1999/xlink"
 xmlns:ev="http://www.w3.org/2001/xml-events" >
<path fill-rule="evenodd"  fill="rgb( 255, 255, 255 )"
 d="M28.643,9.994 C27.874,9.994 27.079,10.027 26.275,10.092 C17.834,10.782 8.920,15.024 8.038,22.942 C7.823,24.878 8.545,26.659 10.127,28.113 C9.118,28.945 8.502,30.597 8.833,31.955 C9.238,33.481 10.135,33.966 12.065,33.966 C12.514,33.966 13.448,33.865 14.054,33.799 C14.054,33.799 14.322,33.496 14.322,33.496 C15.125,34.103 16.390,35.306 16.477,36.308 C16.559,37.457 15.010,38.921 14.407,39.387 C14.407,39.387 13.618,39.998 13.618,39.998 C13.618,39.998 16.791,39.968 16.791,39.968 C16.791,39.968 16.888,39.863 16.888,39.863 C17.128,39.603 19.223,37.279 19.114,35.839 C19.045,35.135 18.972,34.654 17.811,33.408 C18.506,33.147 19.564,32.263 19.911,31.453 C21.341,31.610 21.378,31.624 22.925,31.546 C32.493,31.043 41.849,24.576 41.813,18.488 C41.754,13.407 36.460,9.994 28.643,9.994 ZM10.904,30.530 C11.346,28.324 12.474,30.137 12.893,29.999 C12.893,29.999 12.976,31.117 12.976,31.117 C12.976,31.117 13.158,32.019 13.158,32.019 C12.647,32.000 11.986,31.912 11.650,31.954 C10.987,32.038 10.798,31.060 10.904,30.530 ZM14.124,26.683 C13.708,26.734 13.316,26.804 12.870,26.891 C11.877,26.270 11.236,25.527 11.017,24.741 C10.572,23.068 10.983,21.277 12.208,19.560 C14.779,15.956 20.460,13.206 26.023,12.875 C26.780,12.830 27.519,12.807 28.222,12.807 C34.869,12.807 38.829,14.858 39.088,18.435 C39.184,19.645 38.590,21.025 37.371,22.425 C34.333,25.912 28.498,28.524 23.182,28.779 C21.462,28.853 21.745,28.786 20.188,28.603 C20.652,25.553 17.193,26.089 15.381,26.089 C15.135,26.090 14.390,26.655 14.124,26.683 ZM16.319,28.547 C17.645,28.212 18.087,29.545 18.087,30.502 C18.087,30.967 16.523,31.271 15.960,31.526 C15.960,31.526 15.324,29.999 15.324,29.999 C15.324,29.999 16.319,28.547 16.319,28.547 Z"/>
</svg>