<?xml version="1.0" encoding="utf-8"?>
<!DOCTYPE svg PUBLIC "-//W3C//DTD SVG 1.1//EN" "http://www.w3.org/Graphics/SVG/1.1/DTD/svg11.dtd">
<svg version="1.1" baseProfile="full"
 xmlns="http://www.w3.org/2000/svg"
 xmlns:xlink="http://www.w3.org/1999/xlink"
 xmlns:ev="http://www.w3.org/2001/xml-events" >
<defs>
<filter id="Filter_0">
  <feFlood flood-color="rgb( 255, 255, 255 )" flood-opacity="1" result="floodOut" />
  <feComposite operator="atop" in="floodOut" in2="SourceGraphic" result="compOut" />
  <feBlend mode="normal" in="compOut" in2="SourceGraphic" />
</filter>

</defs><g filter="url(#Filter_0)">
<path fill-rule="evenodd"  fill="rgb( 0, 0, 0 )"
 d="M112.000,36.000 C112.000,36.000 112.000,20.000 112.000,20.000 C112.000,20.000 117.000,20.000 117.000,20.000 C117.000,20.000 117.000,31.000 117.000,31.000 C117.000,31.000 131.000,31.000 131.000,31.000 C131.000,31.000 131.000,18.000 131.000,18.000 C131.000,18.000 119.000,18.000 119.000,18.000 C119.000,18.000 117.000,18.000 117.000,18.000 C117.000,18.000 112.000,18.000 112.000,18.000 C112.000,18.000 110.000,18.000 110.000,18.000 C110.000,18.000 106.000,18.000 106.000,18.000 C106.000,18.000 106.000,13.000 106.000,13.000 C106.000,13.000 112.000,13.000 112.000,13.000 C112.000,13.000 112.000,7.000 112.000,7.000 C112.000,7.000 117.000,7.000 117.000,7.000 C117.000,7.000 117.000,13.000 117.000,13.000 C117.000,13.000 136.000,13.000 136.000,13.000 C136.000,13.000 136.000,31.000 136.000,31.000 C136.000,31.000 142.000,31.000 142.000,31.000 C142.000,31.000 142.000,36.000 142.000,36.000 C142.000,36.000 112.000,36.000 112.000,36.000 ZM136.000,43.000 C136.000,43.000 131.000,43.000 131.000,43.000 C131.000,43.000 131.000,38.000 131.000,38.000 C131.000,38.000 136.000,38.000 136.000,38.000 C136.000,38.000 136.000,43.000 136.000,43.000 Z"/>
</g>
</svg>