<?xml version="1.0" encoding="utf-8"?>
<!DOCTYPE svg PUBLIC "-//W3C//DTD SVG 1.1//EN" "http://www.w3.org/Graphics/SVG/1.1/DTD/svg11.dtd">
<svg version="1.1" baseProfile="full"
 xmlns="http://www.w3.org/2000/svg"
 xmlns:xlink="http://www.w3.org/1999/xlink"
 xmlns:ev="http://www.w3.org/2001/xml-events" >
<defs>
<filter id="Filter_0">
  <feFlood flood-color="rgb( 255, 255, 255 )" flood-opacity="1" result="floodOut" />
  <feComposite operator="atop" in="floodOut" in2="SourceGraphic" result="compOut" />
  <feBlend mode="normal" in="compOut" in2="SourceGraphic" />
</filter>

</defs><g filter="url(#Filter_0)">
<path fill-rule="evenodd"  fill="rgb( 0, 0, 0 )"
 d="M239.446,22.516 C239.446,22.516 227.576,10.665 227.576,10.665 C227.576,10.665 231.549,7.004 231.549,7.004 C231.549,7.004 242.986,18.485 242.986,18.485 C242.986,18.485 239.446,22.516 239.446,22.516 ZM236.102,22.226 C232.367,27.999 230.688,34.319 230.688,34.319 C230.688,34.319 214.182,40.803 209.112,42.937 C208.995,42.983 208.705,42.995 208.384,42.993 C208.384,42.993 221.121,30.276 221.121,30.276 C221.407,30.425 221.719,30.507 222.033,30.507 C223.220,30.507 224.148,29.494 224.148,27.598 C224.148,26.499 223.328,25.895 222.142,25.895 C220.956,25.895 219.984,26.282 219.877,27.470 C219.842,27.827 219.864,28.147 219.913,28.446 C219.913,28.446 206.998,41.341 206.998,41.341 C207.004,41.114 207.090,40.240 207.145,40.123 C209.324,35.125 215.584,19.240 215.584,19.240 C215.584,19.240 221.792,17.540 227.900,14.037 C227.900,14.037 236.102,22.226 236.102,22.226 Z"/>
</g>
</svg>