<?xml version="1.0" encoding="utf-8"?>
<!-- Generator: Adobe Illustrator 17.0.0, SVG Export Plug-In . SVG Version: 6.00 Build 0)  -->
<!DOCTYPE svg PUBLIC "-//W3C//DTD SVG 1.1//EN" "http://www.w3.org/Graphics/SVG/1.1/DTD/svg11.dtd">
<svg version="1.1" id="Layer_1" xmlns="http://www.w3.org/2000/svg" xmlns:xlink="http://www.w3.org/1999/xlink" x="0px" y="0px"
	 width="42px" height="42px" viewBox="0 0 42 42" enable-background="new 0 0 42 42" xml:space="preserve">
<g transform="translate(-374.2178,-62.2364)">
	<path fill="#FFFFFF" d="M404.718,66.686c6,3.727,9.967,10.442,9.999,17.238c0,2.275-0.093,3.812-0.862,6.812h-9.137V66.686z
		 M412.957,92.736c-3.187,6-9.397,10.268-16.2,10.967c-3.488,0.221-7.039-0.662-10.039-1.893v-9.074L412.957,92.736L412.957,92.736z
		 M374.718,83.649c0.088-7.625,4.462-14.354,10.951-17.69l7.655,6.837l-17.881,16.023C374.959,87.053,374.718,85.33,374.718,83.649z
		 M384.718,100.656c-4-2.385-6.71-5.84-8.3-9.656l8.3-7.479V100.656z M402.718,78.82l-15.133-13.803
		c2.346-0.787,4.651-1.273,6.947-1.281c2.906,0,6.186,0.598,8.186,1.793V78.82z"/>
</g>
</svg>
