<?xml version="1.0" encoding="utf-8"?>
<!-- Generator: Adobe Illustrator 17.0.0, SVG Export Plug-In . SVG Version: 6.00 Build 0)  -->
<!DOCTYPE svg PUBLIC "-//W3C//DTD SVG 1.1//EN" "http://www.w3.org/Graphics/SVG/1.1/DTD/svg11.dtd">
<svg version="1.1" id="Layer_1" xmlns="http://www.w3.org/2000/svg" xmlns:xlink="http://www.w3.org/1999/xlink" x="0px" y="0px"
	 width="42px" height="42px" viewBox="0 0 42 42" enable-background="new 0 0 42 42" xml:space="preserve">
<path fill="#FFFFFF" d="M16.5,7.5c0-2.57-0.42-3-3-3h-3c-2.55,0-3,0.48-3,3v3h-4c-2.58,0-3,0.561-3,3v21.998
	c-0.01,2.43,0.6,3.002,3,3.002h33c2.4,0,3.01-0.572,3-3.002V13.5c0-2.439-0.42-3-3-3h-4v-3c0-2.52-0.45-3-3-3h-3c-2.58,0-3,0.43-3,3
	v3h-7V7.5z"/>
</svg>
