<?xml version="1.0" encoding="utf-8"?>
<!DOCTYPE svg PUBLIC "-//W3C//DTD SVG 1.1//EN" "http://www.w3.org/Graphics/SVG/1.1/DTD/svg11.dtd">
<svg version="1.1" baseProfile="full"
 xmlns="http://www.w3.org/2000/svg"
 xmlns:xlink="http://www.w3.org/1999/xlink"
 xmlns:ev="http://www.w3.org/2001/xml-events" >
<path fill-rule="evenodd"  fill="rgb( 255, 255, 255 )"
 d="M13.000,36.000 C13.000,36.000 13.000,20.000 13.000,20.000 C13.000,20.000 18.000,20.000 18.000,20.000 C18.000,20.000 18.000,31.000 18.000,31.000 C18.000,31.000 32.000,31.000 32.000,31.000 C32.000,31.000 32.000,18.000 32.000,18.000 C32.000,18.000 20.000,18.000 20.000,18.000 C20.000,18.000 18.000,18.000 18.000,18.000 C18.000,18.000 13.000,18.000 13.000,18.000 C13.000,18.000 11.000,18.000 11.000,18.000 C11.000,18.000 7.000,18.000 7.000,18.000 C7.000,18.000 7.000,13.000 7.000,13.000 C7.000,13.000 13.000,13.000 13.000,13.000 C13.000,13.000 13.000,7.000 13.000,7.000 C13.000,7.000 18.000,7.000 18.000,7.000 C18.000,7.000 18.000,13.000 18.000,13.000 C18.000,13.000 37.000,13.000 37.000,13.000 C37.000,13.000 37.000,31.000 37.000,31.000 C37.000,31.000 43.000,31.000 43.000,31.000 C43.000,31.000 43.000,36.000 43.000,36.000 C43.000,36.000 13.000,36.000 13.000,36.000 ZM37.000,43.000 C37.000,43.000 32.000,43.000 32.000,43.000 C32.000,43.000 32.000,38.000 32.000,38.000 C32.000,38.000 37.000,38.000 37.000,38.000 C37.000,38.000 37.000,43.000 37.000,43.000 Z"/>
</svg>