<?xml version="1.0" encoding="utf-8"?>
<!DOCTYPE svg PUBLIC "-//W3C//DTD SVG 1.1//EN" "http://www.w3.org/Graphics/SVG/1.1/DTD/svg11.dtd">
<svg version="1.1" baseProfile="full"
 xmlns="http://www.w3.org/2000/svg"
 xmlns:xlink="http://www.w3.org/1999/xlink"
 xmlns:ev="http://www.w3.org/2001/xml-events" >
<path fill-rule="evenodd"  fill="rgb( 255, 255, 255 )"
 d="M40.566,14.252 C40.566,14.252 35.770,18.433 35.770,18.433 C35.770,18.433 38.332,21.004 38.332,21.004 C38.332,21.004 33.523,25.827 33.523,25.827 C33.523,25.827 31.806,24.105 31.806,24.105 C31.806,24.105 17.037,38.917 17.037,38.917 C17.037,38.917 15.465,37.510 12.913,40.927 C12.396,41.626 10.803,43.001 8.790,40.984 C6.996,39.186 8.132,37.329 8.790,36.850 C11.937,34.512 10.851,32.716 10.851,32.716 C10.851,32.716 25.622,17.906 25.622,17.906 C25.622,17.906 23.904,16.183 23.904,16.183 C23.904,16.183 28.713,11.362 28.713,11.362 C28.713,11.362 31.428,14.081 31.428,14.081 C31.428,14.081 35.725,9.498 35.725,9.498 C36.343,8.537 37.321,7.999 38.534,7.999 C40.446,7.999 42.002,9.557 42.002,11.474 C42.002,12.673 41.483,13.631 40.566,14.252 ZM19.331,27.516 C19.331,27.516 18.334,27.516 18.334,27.516 C18.334,27.516 13.309,32.596 13.309,32.596 C13.309,32.596 13.351,35.839 13.351,35.839 C13.351,35.839 10.361,37.540 10.361,37.540 C10.361,37.540 10.361,38.510 10.361,38.510 C10.361,38.510 11.357,38.510 11.357,38.510 C11.357,38.510 11.357,39.510 11.357,39.510 C11.357,39.510 12.226,39.510 12.226,39.510 C12.226,39.510 13.141,37.511 13.141,37.511 C13.141,37.511 12.354,37.511 12.354,37.511 C12.354,37.511 12.354,36.511 12.354,36.511 C12.354,36.511 13.351,36.511 13.351,36.511 C13.351,36.511 13.351,37.054 13.351,37.054 C13.351,37.054 13.599,36.511 13.599,36.511 C13.599,36.511 13.351,36.511 13.351,36.511 C13.351,36.511 13.351,35.839 13.351,35.839 C13.351,35.839 13.351,35.512 13.351,35.512 C13.351,35.512 14.347,35.512 14.347,35.512 C14.347,35.512 14.347,36.511 14.347,36.511 C14.347,36.511 15.344,36.511 15.344,36.511 C15.344,36.511 15.344,35.512 15.344,35.512 C15.344,35.512 16.341,35.512 16.341,35.512 C16.341,35.512 16.341,36.511 16.341,36.511 C16.341,36.511 17.088,36.511 17.088,36.511 C17.088,36.511 25.976,27.516 25.976,27.516 C25.976,27.516 24.315,27.516 24.315,27.516 C24.315,27.516 24.315,28.516 24.315,28.516 C24.315,28.516 23.318,28.516 23.318,28.516 C23.318,28.516 23.318,27.516 23.318,27.516 C23.318,27.516 22.321,27.516 22.321,27.516 C22.321,27.516 22.321,28.516 22.321,28.516 C22.321,28.516 21.324,28.516 21.324,28.516 C21.324,28.516 21.324,27.516 21.324,27.516 C21.324,27.516 20.328,27.516 20.328,27.516 C20.328,27.516 20.328,28.516 20.328,28.516 C20.328,28.516 19.331,28.516 19.331,28.516 C19.331,28.516 19.331,27.516 19.331,27.516 ZM26.997,19.284 C26.997,19.284 19.782,26.517 19.782,26.517 C19.782,26.517 26.652,26.517 26.652,26.517 C26.652,26.517 30.430,22.727 30.430,22.727 C30.430,22.727 26.997,19.284 26.997,19.284 ZM18.334,29.515 C18.334,29.515 18.334,28.516 18.334,28.516 C18.334,28.516 19.331,28.516 19.331,28.516 C19.331,28.516 19.331,29.515 19.331,29.515 C19.331,29.515 18.334,29.515 18.334,29.515 ZM15.344,34.512 C15.344,34.512 15.344,35.512 15.344,35.512 C15.344,35.512 14.347,35.512 14.347,35.512 C14.347,35.512 14.347,34.512 14.347,34.512 C14.347,34.512 15.344,34.512 15.344,34.512 ZM17.338,34.512 C17.338,34.512 17.338,35.512 17.338,35.512 C17.338,35.512 16.341,35.512 16.341,35.512 C16.341,35.512 16.341,34.512 16.341,34.512 C16.341,34.512 17.338,34.512 17.338,34.512 ZM22.321,29.515 C22.321,29.515 22.321,28.516 22.321,28.516 C22.321,28.516 23.318,28.516 23.318,28.516 C23.318,28.516 23.318,29.515 23.318,29.515 C23.318,29.515 22.321,29.515 22.321,29.515 ZM20.328,29.515 C20.328,29.515 20.328,28.516 20.328,28.516 C20.328,28.516 21.324,28.516 21.324,28.516 C21.324,28.516 21.324,29.515 21.324,29.515 C21.324,29.515 20.328,29.515 20.328,29.515 ZM19.331,30.515 C19.331,30.515 19.331,29.515 19.331,29.515 C19.331,29.515 20.328,29.515 20.328,29.515 C20.328,29.515 20.328,30.515 20.328,30.515 C20.328,30.515 19.331,30.515 19.331,30.515 ZM17.338,30.515 C17.338,30.515 17.338,29.515 17.338,29.515 C17.338,29.515 18.334,29.515 18.334,29.515 C18.334,29.515 18.334,30.515 18.334,30.515 C18.334,30.515 17.338,30.515 17.338,30.515 ZM16.341,31.514 C16.341,31.514 16.341,30.515 16.341,30.515 C16.341,30.515 17.338,30.515 17.338,30.515 C17.338,30.515 17.338,31.514 17.338,31.514 C17.338,31.514 16.341,31.514 16.341,31.514 ZM15.344,32.514 C15.344,32.514 15.344,31.514 15.344,31.514 C15.344,31.514 16.341,31.514 16.341,31.514 C16.341,31.514 16.341,32.514 16.341,32.514 C16.341,32.514 15.344,32.514 15.344,32.514 ZM14.347,33.513 C14.347,33.513 14.347,32.514 14.347,32.514 C14.347,32.514 15.344,32.514 15.344,32.514 C15.344,32.514 15.344,33.513 15.344,33.513 C15.344,33.513 14.347,33.513 14.347,33.513 ZM16.341,33.513 C16.341,33.513 16.341,34.512 16.341,34.512 C16.341,34.512 15.344,34.512 15.344,34.512 C15.344,34.512 15.344,33.513 15.344,33.513 C15.344,33.513 16.341,33.513 16.341,33.513 ZM18.334,33.513 C18.334,33.513 18.334,34.512 18.334,34.512 C18.334,34.512 17.338,34.512 17.338,34.512 C17.338,34.512 17.338,33.513 17.338,33.513 C17.338,33.513 18.334,33.513 18.334,33.513 ZM19.331,32.514 C19.331,32.514 19.331,33.513 19.331,33.513 C19.331,33.513 18.334,33.513 18.334,33.513 C18.334,33.513 18.334,32.514 18.334,32.514 C18.334,32.514 19.331,32.514 19.331,32.514 ZM20.328,31.514 C20.328,31.514 20.328,32.514 20.328,32.514 C20.328,32.514 19.331,32.514 19.331,32.514 C19.331,32.514 19.331,31.514 19.331,31.514 C19.331,31.514 20.328,31.514 20.328,31.514 ZM18.334,31.514 C18.334,31.514 18.334,30.515 18.334,30.515 C18.334,30.515 19.331,30.515 19.331,30.515 C19.331,30.515 19.331,31.514 19.331,31.514 C19.331,31.514 18.334,31.514 18.334,31.514 ZM17.338,32.514 C17.338,32.514 17.338,31.514 17.338,31.514 C17.338,31.514 18.334,31.514 18.334,31.514 C18.334,31.514 18.334,32.514 18.334,32.514 C18.334,32.514 17.338,32.514 17.338,32.514 ZM16.341,33.513 C16.341,33.513 16.341,32.514 16.341,32.514 C16.341,32.514 17.338,32.514 17.338,32.514 C17.338,32.514 17.338,33.513 17.338,33.513 C17.338,33.513 16.341,33.513 16.341,33.513 ZM21.324,30.515 C21.324,30.515 21.324,31.514 21.324,31.514 C21.324,31.514 20.328,31.514 20.328,31.514 C20.328,31.514 20.328,30.515 20.328,30.515 C20.328,30.515 21.324,30.515 21.324,30.515 ZM22.321,29.515 C22.321,29.515 22.321,30.515 22.321,30.515 C22.321,30.515 21.324,30.515 21.324,30.515 C21.324,30.515 21.324,29.515 21.324,29.515 C21.324,29.515 22.321,29.515 22.321,29.515 ZM13.351,34.512 C13.351,34.512 13.351,33.513 13.351,33.513 C13.351,33.513 14.347,33.513 14.347,33.513 C14.347,33.513 14.347,34.512 14.347,34.512 C14.347,34.512 13.351,34.512 13.351,34.512 ZM12.354,37.511 C12.354,37.511 12.354,38.510 12.354,38.510 C12.354,38.510 11.357,38.510 11.357,38.510 C11.357,38.510 11.357,37.511 11.357,37.511 C11.357,37.511 12.354,37.511 12.354,37.511 Z"/>
</svg>