<?xml version="1.0" encoding="utf-8"?>
<!DOCTYPE svg PUBLIC "-//W3C//DTD SVG 1.1//EN" "http://www.w3.org/Graphics/SVG/1.1/DTD/svg11.dtd">
<svg version="1.1" baseProfile="full"
 xmlns="http://www.w3.org/2000/svg"
 xmlns:xlink="http://www.w3.org/1999/xlink"
 xmlns:ev="http://www.w3.org/2001/xml-events" >
<path fill-rule="evenodd"  fill="rgb( 255, 255, 255 )"
 d="M39.446,22.516 C39.446,22.516 27.576,10.665 27.576,10.665 C27.576,10.665 31.549,7.004 31.549,7.004 C31.549,7.004 42.986,18.485 42.986,18.485 C42.986,18.485 39.446,22.516 39.446,22.516 ZM36.102,22.226 C32.367,27.999 30.688,34.319 30.688,34.319 C30.688,34.319 14.182,40.803 9.112,42.937 C8.995,42.983 8.705,42.995 8.384,42.993 C8.384,42.993 21.121,30.276 21.121,30.276 C21.407,30.425 21.719,30.507 22.033,30.507 C23.220,30.507 24.148,29.494 24.148,27.598 C24.148,26.499 23.328,25.896 22.142,25.896 C20.956,25.896 19.984,26.282 19.877,27.470 C19.842,27.827 19.864,28.147 19.913,28.446 C19.913,28.446 6.998,41.341 6.998,41.341 C7.004,41.114 7.090,40.240 7.145,40.123 C9.324,35.125 15.584,19.240 15.584,19.240 C15.584,19.240 21.792,17.540 27.900,14.037 C27.900,14.037 36.102,22.226 36.102,22.226 Z"/>
</svg>