<?xml version="1.0" encoding="utf-8"?>
<!DOCTYPE svg PUBLIC "-//W3C//DTD SVG 1.1//EN" "http://www.w3.org/Graphics/SVG/1.1/DTD/svg11.dtd">
<svg version="1.1" baseProfile="full"
 xmlns="http://www.w3.org/2000/svg"
 xmlns:xlink="http://www.w3.org/1999/xlink"
 xmlns:ev="http://www.w3.org/2001/xml-events" >
<path fill-rule="evenodd"  fill="rgb( 255, 255, 255 )"
 d="M10.000,9.000 C10.000,9.000 10.000,19.000 10.000,19.000 C10.000,19.000 13.000,19.000 13.000,19.000 C13.000,19.000 13.000,15.323 13.000,15.323 C13.000,13.263 14.723,12.000 15.598,12.000 C15.598,12.000 16.718,12.000 16.718,12.000 C16.718,12.000 22.000,12.000 22.000,12.000 C22.000,12.000 22.000,31.927 22.000,31.927 C22.000,31.927 22.000,32.271 22.000,32.271 C22.000,33.754 20.643,38.000 18.429,38.000 C18.429,38.000 16.000,38.000 16.000,38.000 C16.000,38.000 16.000,41.000 16.000,41.000 C16.000,41.000 34.000,41.000 34.000,41.000 C34.000,41.000 34.000,38.000 34.000,38.000 C34.000,38.000 31.608,38.000 31.608,38.000 C29.313,38.000 28.000,33.552 28.000,32.304 C28.000,32.208 28.000,32.068 28.000,31.971 C28.000,31.971 28.000,12.000 28.000,12.000 C28.000,12.000 33.242,12.000 33.242,12.000 C33.242,12.000 34.451,12.000 34.451,12.000 C35.347,12.000 37.000,13.263 37.000,15.323 C37.000,15.323 37.000,19.000 37.000,19.000 C37.000,19.000 40.000,19.000 40.000,19.000 C40.000,19.000 40.000,9.000 40.000,9.000 C40.000,9.000 10.000,9.000 10.000,9.000 Z"/>
</svg>