<?xml version="1.0" encoding="utf-8"?>
<!DOCTYPE svg PUBLIC "-//W3C//DTD SVG 1.1//EN" "http://www.w3.org/Graphics/SVG/1.1/DTD/svg11.dtd">
<svg version="1.1" baseProfile="full"
 xmlns="http://www.w3.org/2000/svg"
 xmlns:xlink="http://www.w3.org/1999/xlink"
 xmlns:ev="http://www.w3.org/2001/xml-events" >
<path fill-rule="evenodd"  fill="rgb( 255, 255, 255 )"
 d="M42.000,28.000 C42.000,28.000 36.000,32.000 36.000,32.000 C36.000,32.000 36.000,30.000 36.000,30.000 C36.000,30.000 30.000,30.000 30.000,30.000 C30.000,30.000 30.000,36.000 30.000,36.000 C30.000,36.000 32.000,36.000 32.000,36.000 C32.000,36.000 28.000,42.000 28.000,42.000 C28.000,42.000 24.000,36.000 24.000,36.000 C24.000,36.000 26.000,36.000 26.000,36.000 C26.000,36.000 26.000,30.000 26.000,30.000 C26.000,30.000 20.000,30.000 20.000,30.000 C20.000,30.000 20.000,32.000 20.000,32.000 C20.000,32.000 14.000,28.000 14.000,28.000 C14.000,28.000 20.000,24.000 20.000,24.000 C20.000,24.000 20.000,26.000 20.000,26.000 C20.000,26.000 26.000,26.000 26.000,26.000 C26.000,26.000 26.000,20.000 26.000,20.000 C26.000,20.000 24.000,20.000 24.000,20.000 C24.000,20.000 28.000,14.000 28.000,14.000 C28.000,14.000 32.000,20.000 32.000,20.000 C32.000,20.000 30.000,20.000 30.000,20.000 C30.000,20.000 30.000,26.000 30.000,26.000 C30.000,26.000 36.000,26.000 36.000,26.000 C36.000,26.000 36.000,24.000 36.000,24.000 C36.000,24.000 42.000,28.000 42.000,28.000 ZM8.000,25.000 C8.000,25.000 8.000,8.000 8.000,8.000 C8.000,8.000 20.000,20.000 20.000,20.000 C20.000,20.000 13.000,20.000 13.000,20.000 C13.000,20.000 8.000,25.000 8.000,25.000 Z"/>
</svg>