<?xml version="1.0" encoding="utf-8"?>
<!DOCTYPE svg PUBLIC "-//W3C//DTD SVG 1.1//EN" "http://www.w3.org/Graphics/SVG/1.1/DTD/svg11.dtd">
<svg version="1.1" baseProfile="full"
 xmlns="http://www.w3.org/2000/svg"
 xmlns:xlink="http://www.w3.org/1999/xlink"
 xmlns:ev="http://www.w3.org/2001/xml-events" >
<path fill-rule="evenodd"  fill="rgb( 255, 255, 255 )"
 d="M23.975,31.772 C23.975,31.772 27.154,34.949 27.154,34.949 C27.154,34.949 40.513,21.622 40.505,21.614 C42.070,20.043 42.052,19.349 40.505,17.802 C40.513,17.785 39.227,16.526 39.227,16.526 C39.227,16.526 23.975,31.772 23.975,31.772 ZM22.529,30.325 C22.529,30.325 37.782,15.081 37.782,15.081 C37.782,15.081 34.780,12.081 34.780,12.081 C34.780,12.081 19.527,27.326 19.527,27.326 C19.527,27.326 22.529,30.325 22.529,30.325 ZM33.512,10.813 C33.512,10.813 32.244,9.545 32.244,9.545 C30.629,7.931 30.054,7.913 28.431,9.545 C28.431,9.545 15.080,22.881 15.080,22.881 C15.080,22.881 18.259,26.059 18.259,26.059 C18.259,26.059 33.512,10.813 33.512,10.813 ZM13.812,24.149 C13.812,24.149 7.851,42.133 7.851,42.133 C7.851,42.133 25.886,36.217 25.886,36.217 C25.886,36.217 13.812,24.149 13.812,24.149 ZM12.543,33.140 C12.543,33.140 16.991,37.587 16.991,37.587 C16.991,37.587 10.557,39.497 10.557,39.497 C10.557,39.497 12.543,33.140 12.543,33.140 Z"/>
</svg>