<?xml version="1.0" encoding="utf-8"?>
<!DOCTYPE svg PUBLIC "-//W3C//DTD SVG 1.1//EN" "http://www.w3.org/Graphics/SVG/1.1/DTD/svg11.dtd">
<svg version="1.1" baseProfile="full"
 xmlns="http://www.w3.org/2000/svg"
 xmlns:xlink="http://www.w3.org/1999/xlink"
 xmlns:ev="http://www.w3.org/2001/xml-events" >
<path fill-rule="evenodd"  fill="rgb( 255, 255, 255 )"
 d="M32.812,10.000 C32.812,10.000 17.258,10.000 17.258,10.000 C12.287,10.000 8.000,14.579 8.000,19.550 C8.000,19.550 8.000,31.000 8.000,31.000 C8.000,35.971 12.264,40.000 17.234,40.000 C17.234,40.000 32.835,40.000 32.835,40.000 C37.807,40.000 42.000,36.021 42.000,31.050 C42.000,31.050 42.000,19.600 42.000,19.600 C42.000,14.629 37.783,10.000 32.812,10.000 ZM40.000,30.500 C40.000,34.642 36.642,38.000 32.500,38.000 C32.500,38.000 17.500,38.000 17.500,38.000 C13.358,38.000 10.000,34.642 10.000,30.500 C10.000,30.500 10.000,19.500 10.000,19.500 C10.000,15.358 13.358,12.000 17.500,12.000 C17.500,12.000 32.500,12.000 32.500,12.000 C36.642,12.000 40.000,15.358 40.000,19.500 C40.000,19.500 40.000,30.500 40.000,30.500 Z"/>
</svg>